<svg xmlns="http://www.w3.org/2000/svg" viewBox="0 -30  150 150">
<rect fill="#2b2b2b" x="0" y="-30" width="150" height="150" />
<path fill="#4285f4" d="M58,108h14v-34l-20,-15v43c0,3.32,2.69,6,6,6"/>
<path fill="#34a853" d="M120,108h14c3.32,0,6,-2.69,6,-6v-43l-20,15"/>
<path fill="#fbbc04" d="M120,48v26l20,-15v-8c0,-7.42,-8.47,-11.65,-14.4,-7.2"/>
<path fill="#ea4335" d="M72,74v-26l24,18l24,-18v26l-24,18"/>
<path fill="#c5221f" d="M52,51v8l20,15v-26l-5.6,-4.2c-5.94,-4.45,-14.4,-0.22,-14.4,7.2"/>
</svg>
