<?xml version="1.0" encoding="UTF-8" standalone="no"?>
<svg
   viewBox="0 0 400 400"
   version="1.1"
   id="svg5"
   sodipodi:docname="todoist_button_gold.svg"
   width="400"
   height="400"
   inkscape:version="1.3.2 (091e20e, 2023-11-25)"
   xmlns:inkscape="http://www.inkscape.org/namespaces/inkscape"
   xmlns:sodipodi="http://sodipodi.sourceforge.net/DTD/sodipodi-0.dtd"
   xmlns:xlink="http://www.w3.org/1999/xlink"
   xmlns="http://www.w3.org/2000/svg"
   xmlns:svg="http://www.w3.org/2000/svg">
  <sodipodi:namedview
     id="namedview1"
     pagecolor="#ffffff"
     bordercolor="#000000"
     borderopacity="0.25"
     inkscape:showpageshadow="2"
     inkscape:pageopacity="0.0"
     inkscape:pagecheckerboard="0"
     inkscape:deskcolor="#d1d1d1"
     inkscape:zoom="1.85"
     inkscape:cx="199.72973"
     inkscape:cy="200"
     inkscape:window-width="2560"
     inkscape:window-height="973"
     inkscape:window-x="2560"
     inkscape:window-y="439"
     inkscape:window-maximized="0"
     inkscape:current-layer="svg5" />
  <defs
     id="defs1">
    <linearGradient
       id="linearGradient26"
       inkscape:collect="always">
      <stop
         style="stop-color:#ece084;stop-opacity:0;"
         offset="0"
         id="stop22" />
      <stop
         style="stop-color:#edde99;stop-opacity:0.74509805;"
         offset="0.61760426"
         id="stop23" />
      <stop
         style="stop-color:#efdcae;stop-opacity:1;"
         offset="0.6357919"
         id="stop24" />
      <stop
         style="stop-color:#e3c183;stop-opacity:0.76862746;"
         offset="0.66181213"
         id="stop25" />
      <stop
         style="stop-color:#d8a558;stop-opacity:0;"
         offset="1"
         id="stop26" />
    </linearGradient>
    <linearGradient
       id="linearGradient21"
       inkscape:collect="always">
      <stop
         style="stop-color:#ece084;stop-opacity:0;"
         offset="0"
         id="stop17" />
      <stop
         style="stop-color:#ece083;stop-opacity:1;"
         offset="0.09955753"
         id="stop18" />
      <stop
         style="stop-color:#e4c776;stop-opacity:1;"
         offset="0.49778762"
         id="stop19" />
      <stop
         style="stop-color:#ece083;stop-opacity:1;"
         offset="0.90597349"
         id="stop20" />
      <stop
         style="stop-color:#dcae6a;stop-opacity:1;"
         offset="1"
         id="stop21" />
    </linearGradient>
    <linearGradient
       id="linearGradient8"
       inkscape:collect="always">
      <stop
         style="stop-color:#dcae6a;stop-opacity:1;"
         offset="0"
         id="stop9" />
      <stop
         style="stop-color:#ece083;stop-opacity:1;"
         offset="0.09955753"
         id="stop13" />
      <stop
         style="stop-color:#e4c776;stop-opacity:1;"
         offset="0.49778762"
         id="stop11" />
      <stop
         style="stop-color:#ece083;stop-opacity:1;"
         offset="0.90597349"
         id="stop12" />
      <stop
         style="stop-color:#dcae6a;stop-opacity:1;"
         offset="1"
         id="stop10" />
    </linearGradient>
    <linearGradient
       inkscape:collect="always"
       xlink:href="#linearGradient2"
       id="linearGradient3"
       x1="0"
       y1="200"
       x2="400"
       y2="200"
       gradientUnits="userSpaceOnUse"
       gradientTransform="translate(0,-400)" />
    <linearGradient
       id="linearGradient2"
       inkscape:collect="always">
      <stop
         style="stop-color:#ffffff;stop-opacity:1;"
         offset="0"
         id="stop2" />
      <stop
         style="stop-color:#ffffff;stop-opacity:0;"
         offset="1"
         id="stop3" />
    </linearGradient>
    <linearGradient
       inkscape:collect="always"
       xlink:href="#linearGradient7"
       id="linearGradient5"
       gradientUnits="userSpaceOnUse"
       gradientTransform="translate(-400)"
       x1="0"
       y1="200"
       x2="400"
       y2="200" />
    <linearGradient
       id="linearGradient7"
       inkscape:collect="always">
      <stop
         style="stop-color:#000000;stop-opacity:1;"
         offset="0"
         id="stop6" />
      <stop
         style="stop-color:#000000;stop-opacity:0;"
         offset="1"
         id="stop7" />
    </linearGradient>
    <linearGradient
       inkscape:collect="always"
       xlink:href="#linearGradient8"
       id="linearGradient11"
       x1="0.000244141"
       y1="16"
       x2="32.000198"
       y2="16"
       gradientUnits="userSpaceOnUse"
       spreadMethod="pad" />
    <linearGradient
       inkscape:collect="always"
       xlink:href="#linearGradient21"
       id="linearGradient16"
       gradientUnits="userSpaceOnUse"
       x1="16.153152"
       y1="-0.13513513"
       x2="18.675674"
       y2="31.72072"
       spreadMethod="pad" />
    <linearGradient
       inkscape:collect="always"
       xlink:href="#linearGradient26"
       id="linearGradient22"
       gradientUnits="userSpaceOnUse"
       x1="-0.063063063"
       y1="25.018019"
       x2="32.153152"
       y2="6.6396399"
       spreadMethod="pad" />
  </defs>
  <rect
     width="400"
     height="400"
     fill="#e8b564"
     id="rect1" />
  <g
     transform="scale(7.5) translate(17, 17)"
     id="g1">
    <path
       fill-rule="evenodd"
       clip-rule="evenodd"
       d="M4.00024 0H28.0002C30.2002 0 32.0002 1.8 32.0002 4V28C32.0002 30.2 30.2002 32 28.0002 32H4.00024C1.80024 32 0.000244141 30.2 0.000244141 28V22.6259L0.0567532 22.6588C1.42164 23.4537 4.64857 25.3329 5.43896 25.7791C5.91728 26.0491 6.37512 26.0425 6.8364 25.7767C7.11231 25.6176 10.1384 23.8761 13.1963 22.1164L13.2111 22.1079L13.2718 22.0729C16.4533 20.242 19.645 18.4052 19.7862 18.3237C20.0634 18.1637 20.0773 17.6726 19.767 17.4955L19.5494 17.3715L19.5492 17.3714L19.5487 17.3711L19.5478 17.3706C19.2315 17.1905 18.8224 16.9575 18.6478 16.8553C18.4245 16.725 18.0229 16.6526 17.6504 16.8672C17.4958 16.9564 7.14912 22.9056 6.80328 23.1022C6.38936 23.3375 5.87704 23.3406 5.46456 23.1018C5.1388 22.9133 0.000244141 19.9274 0.000244141 19.9274V17.234L0.0569832 17.2671C1.422 18.062 4.64861 19.941 5.43896 20.3872C5.91728 20.6572 6.37512 20.6506 6.8364 20.3848C7.1125 20.2256 10.1427 18.4818 13.2028 16.7208L13.2269 16.7069L13.2458 16.696L13.2567 16.6897C16.4432 14.8559 19.6448 13.0134 19.7862 12.9318C20.0634 12.7718 20.0773 12.2807 19.767 12.1037L19.5495 11.9797C19.2331 11.7996 18.8226 11.5658 18.6478 11.4634C18.4245 11.3332 18.0229 11.2608 17.6504 11.4753C17.4958 11.5645 7.14912 17.5137 6.80328 17.7103C6.38936 17.9456 5.87704 17.9487 5.46456 17.7099C5.1388 17.5214 0.000244141 14.5355 0.000244141 14.5355V11.8425L0.0561181 11.875C1.42064 12.6696 4.64845 14.5493 5.43896 14.9956C5.91728 15.2657 6.37512 15.259 6.8364 14.9932C7.11272 14.8339 10.1476 13.0874 13.2102 11.3249L13.2184 11.3202C16.4175 9.47914 19.6442 7.62218 19.7862 7.54023C20.0634 7.38015 20.0773 6.88911 19.767 6.71207L19.5494 6.58808L19.5487 6.58767C19.2324 6.40753 18.8225 6.1741 18.6478 6.07183C18.4245 5.94159 18.0229 5.86919 17.6504 6.08375C17.4958 6.17295 7.14912 12.1222 6.80328 12.3187C6.38936 12.5541 5.87704 12.5571 5.46456 12.3183C5.1388 12.1298 0.000244141 9.14391 0.000244141 9.14391V4C0.000244141 1.8 1.80024 0 4.00024 0Z"
       fill="white"
       id="path1"
       style="fill-opacity:1;fill:#ece083;stroke:#483d38;stroke-width:0.26666667;stroke-dasharray:none;stroke-opacity:1" />
    <path
       fill-rule="evenodd"
       clip-rule="evenodd"
       d="M 4.00024,0 H 28.0002 c 2.2,0 4,1.8 4,4 v 24 c 0,2.2 -1.8,4 -4,4 H 4.00024 C 1.80024,32 2.44141e-4,30.2 2.44141e-4,28 V 22.6259 L 0.0567532,22.6588 C 1.42164,23.4537 4.64857,25.3329 5.43896,25.7791 c 0.47832,0.27 0.93616,0.2634 1.39744,-0.0024 0.27591,-0.1591 3.302,-1.9006 6.3599,-3.6603 l 0.0148,-0.0085 0.0607,-0.035 c 3.1815,-1.8309 6.3732,-3.6677 6.5144,-3.7492 0.2772,-0.16 0.2911,-0.6511 -0.0192,-0.8282 l -0.2176,-0.124 -2e-4,-10e-5 -5e-4,-3e-4 -9e-4,-5e-4 c -0.3163,-0.1801 -0.7254,-0.4131 -0.9,-0.5153 -0.2233,-0.1303 -0.6249,-0.2027 -0.9974,0.0119 -0.1546,0.0892 -10.50128,6.0384 -10.84712,6.235 -0.41392,0.2353 -0.92624,0.2384 -1.33872,-4e-4 C 5.1388,22.9133 2.44141e-4,19.9274 2.44141e-4,19.9274 V 17.234 L 0.0569832,17.2671 C 1.422,18.062 4.64861,19.941 5.43896,20.3872 c 0.47832,0.27 0.93616,0.2634 1.39744,-0.0024 0.2761,-0.1592 3.3063,-1.903 6.3664,-3.664 l 0.0241,-0.0139 0.0189,-0.0109 0.0109,-0.0063 c 3.1865,-1.8338 6.3881,-3.6763 6.5295,-3.7579 0.2772,-0.16 0.2911,-0.6511 -0.0192,-0.8281 l -0.2175,-0.124 C 19.2331,11.7996 18.8226,11.5658 18.6478,11.4634 18.4245,11.3332 18.0229,11.2608 17.6504,11.4753 17.4958,11.5645 7.14912,17.5137 6.80328,17.7103 6.38936,17.9456 5.87704,17.9487 5.46456,17.7099 5.1388,17.5214 2.44141e-4,14.5355 2.44141e-4,14.5355 v -2.693 L 0.0561181,11.875 C 1.42064,12.6696 4.64845,14.5493 5.43896,14.9956 c 0.47832,0.2701 0.93616,0.2634 1.39744,-0.0024 0.27632,-0.1593 3.3112,-1.9058 6.3738,-3.6683 l 0.0082,-0.0047 C 16.4175,9.47914 19.6442,7.62218 19.7862,7.54023 20.0634,7.38015 20.0773,6.88911 19.767,6.71207 l -0.2176,-0.12399 -7e-4,-4.1e-4 C 19.2324,6.40753 18.8225,6.1741 18.6478,6.07183 18.4245,5.94159 18.0229,5.86919 17.6504,6.08375 17.4958,6.17295 7.14912,12.1222 6.80328,12.3187 6.38936,12.5541 5.87704,12.5571 5.46456,12.3183 5.1388,12.1298 2.44141e-4,9.14391 2.44141e-4,9.14391 V 4 C 2.44141e-4,1.8 1.80024,0 4.00024,0 Z"
       fill="white"
       id="path15"
       style="display:inline;opacity:0.3;fill:url(#linearGradient11);fill-opacity:1;stroke:none;stroke-width:0.133333;stroke-dasharray:none;stroke-opacity:1" />
    <path
       fill-rule="evenodd"
       clip-rule="evenodd"
       d="M 4.00024,0 H 28.0002 c 2.2,0 4,1.8 4,4 v 24 c 0,2.2 -1.8,4 -4,4 H 4.00024 C 1.80024,32 2.44141e-4,30.2 2.44141e-4,28 V 22.6259 L 0.0567532,22.6588 C 1.42164,23.4537 4.64857,25.3329 5.43896,25.7791 c 0.47832,0.27 0.93616,0.2634 1.39744,-0.0024 0.27591,-0.1591 3.302,-1.9006 6.3599,-3.6603 l 0.0148,-0.0085 0.0607,-0.035 c 3.1815,-1.8309 6.3732,-3.6677 6.5144,-3.7492 0.2772,-0.16 0.2911,-0.6511 -0.0192,-0.8282 l -0.2176,-0.124 -2e-4,-10e-5 -5e-4,-3e-4 -9e-4,-5e-4 c -0.3163,-0.1801 -0.7254,-0.4131 -0.9,-0.5153 -0.2233,-0.1303 -0.6249,-0.2027 -0.9974,0.0119 -0.1546,0.0892 -10.50128,6.0384 -10.84712,6.235 -0.41392,0.2353 -0.92624,0.2384 -1.33872,-4e-4 C 5.1388,22.9133 2.44141e-4,19.9274 2.44141e-4,19.9274 V 17.234 L 0.0569832,17.2671 C 1.422,18.062 4.64861,19.941 5.43896,20.3872 c 0.47832,0.27 0.93616,0.2634 1.39744,-0.0024 0.2761,-0.1592 3.3063,-1.903 6.3664,-3.664 l 0.0241,-0.0139 0.0189,-0.0109 0.0109,-0.0063 c 3.1865,-1.8338 6.3881,-3.6763 6.5295,-3.7579 0.2772,-0.16 0.2911,-0.6511 -0.0192,-0.8281 l -0.2175,-0.124 C 19.2331,11.7996 18.8226,11.5658 18.6478,11.4634 18.4245,11.3332 18.0229,11.2608 17.6504,11.4753 17.4958,11.5645 7.14912,17.5137 6.80328,17.7103 6.38936,17.9456 5.87704,17.9487 5.46456,17.7099 5.1388,17.5214 2.44141e-4,14.5355 2.44141e-4,14.5355 v -2.693 L 0.0561181,11.875 C 1.42064,12.6696 4.64845,14.5493 5.43896,14.9956 c 0.47832,0.2701 0.93616,0.2634 1.39744,-0.0024 0.27632,-0.1593 3.3112,-1.9058 6.3738,-3.6683 l 0.0082,-0.0047 C 16.4175,9.47914 19.6442,7.62218 19.7862,7.54023 20.0634,7.38015 20.0773,6.88911 19.767,6.71207 l -0.2176,-0.12399 -7e-4,-4.1e-4 C 19.2324,6.40753 18.8225,6.1741 18.6478,6.07183 18.4245,5.94159 18.0229,5.86919 17.6504,6.08375 17.4958,6.17295 7.14912,12.1222 6.80328,12.3187 6.38936,12.5541 5.87704,12.5571 5.46456,12.3183 5.1388,12.1298 2.44141e-4,9.14391 2.44141e-4,9.14391 V 4 C 2.44141e-4,1.8 1.80024,0 4.00024,0 Z"
       fill="white"
       id="path16"
       style="display:inline;opacity:0.3;fill:url(#linearGradient16);fill-opacity:1;stroke:none;stroke-width:0.133333;stroke-dasharray:none;stroke-opacity:1"
       inkscape:label="path16" />
    <path
       fill-rule="evenodd"
       clip-rule="evenodd"
       d="M 4.00024,0 H 28.0002 c 2.2,0 4,1.8 4,4 v 24 c 0,2.2 -1.8,4 -4,4 H 4.00024 C 1.80024,32 2.44141e-4,30.2 2.44141e-4,28 V 22.6259 L 0.0567532,22.6588 C 1.42164,23.4537 4.64857,25.3329 5.43896,25.7791 c 0.47832,0.27 0.93616,0.2634 1.39744,-0.0024 0.27591,-0.1591 3.302,-1.9006 6.3599,-3.6603 l 0.0148,-0.0085 0.0607,-0.035 c 3.1815,-1.8309 6.3732,-3.6677 6.5144,-3.7492 0.2772,-0.16 0.2911,-0.6511 -0.0192,-0.8282 l -0.2176,-0.124 -2e-4,-10e-5 -5e-4,-3e-4 -9e-4,-5e-4 c -0.3163,-0.1801 -0.7254,-0.4131 -0.9,-0.5153 -0.2233,-0.1303 -0.6249,-0.2027 -0.9974,0.0119 -0.1546,0.0892 -10.50128,6.0384 -10.84712,6.235 -0.41392,0.2353 -0.92624,0.2384 -1.33872,-4e-4 C 5.1388,22.9133 2.44141e-4,19.9274 2.44141e-4,19.9274 V 17.234 L 0.0569832,17.2671 C 1.422,18.062 4.64861,19.941 5.43896,20.3872 c 0.47832,0.27 0.93616,0.2634 1.39744,-0.0024 0.2761,-0.1592 3.3063,-1.903 6.3664,-3.664 l 0.0241,-0.0139 0.0189,-0.0109 0.0109,-0.0063 c 3.1865,-1.8338 6.3881,-3.6763 6.5295,-3.7579 0.2772,-0.16 0.2911,-0.6511 -0.0192,-0.8281 l -0.2175,-0.124 C 19.2331,11.7996 18.8226,11.5658 18.6478,11.4634 18.4245,11.3332 18.0229,11.2608 17.6504,11.4753 17.4958,11.5645 7.14912,17.5137 6.80328,17.7103 6.38936,17.9456 5.87704,17.9487 5.46456,17.7099 5.1388,17.5214 2.44141e-4,14.5355 2.44141e-4,14.5355 v -2.693 L 0.0561181,11.875 C 1.42064,12.6696 4.64845,14.5493 5.43896,14.9956 c 0.47832,0.2701 0.93616,0.2634 1.39744,-0.0024 0.27632,-0.1593 3.3112,-1.9058 6.3738,-3.6683 l 0.0082,-0.0047 C 16.4175,9.47914 19.6442,7.62218 19.7862,7.54023 20.0634,7.38015 20.0773,6.88911 19.767,6.71207 l -0.2176,-0.12399 -7e-4,-4.1e-4 C 19.2324,6.40753 18.8225,6.1741 18.6478,6.07183 18.4245,5.94159 18.0229,5.86919 17.6504,6.08375 17.4958,6.17295 7.14912,12.1222 6.80328,12.3187 6.38936,12.5541 5.87704,12.5571 5.46456,12.3183 5.1388,12.1298 2.44141e-4,9.14391 2.44141e-4,9.14391 V 4 C 2.44141e-4,1.8 1.80024,0 4.00024,0 Z"
       fill="white"
       id="path17"
       style="display:inline;opacity:0.6;mix-blend-mode:screen;fill:url(#linearGradient22);fill-opacity:1;stroke:none;stroke-width:0.133333;stroke-dasharray:none;stroke-opacity:1"
       inkscape:label="path16" />
  </g>
  <g
     id="g16"
     inkscape:label="scrim">
    <rect
       style="display:inline;opacity:0.15;mix-blend-mode:multiply;fill:url(#linearGradient5);stroke:none;stroke-width:13.9187"
       id="rect1-7"
       width="400"
       height="400"
       x="-400"
       y="0"
       transform="rotate(-90)"
       inkscape:label="shadow"
       sodipodi:insensitive="true" />
    <rect
       style="display:inline;opacity:0.06;mix-blend-mode:screen;fill:url(#linearGradient3);fill-opacity:1;stroke:none;stroke-width:13.9187"
       id="rect3"
       width="400"
       height="400"
       x="0"
       y="-400"
       transform="rotate(90)"
       inkscape:label="highlight"
       sodipodi:insensitive="true" />
  </g>
</svg>
