<?xml version="1.0" encoding="UTF-8" standalone="no"?>
<!-- Created with Inkscape (http://www.inkscape.org/) -->

<svg
   version="1.1"
   id="svg1"
   width="400"
   height="400"
   viewBox="0 0 400 400"
   sodipodi:docname="action_gold_key.svg"
   inkscape:version="1.3.1 (91b66b0783, 2023-11-16)"
   inkscape:export-filename="marvin-288.png"
   inkscape:export-xdpi="69.120003"
   inkscape:export-ydpi="69.120003"
   xml:space="preserve"
   xmlns:inkscape="http://www.inkscape.org/namespaces/inkscape"
   xmlns:sodipodi="http://sodipodi.sourceforge.net/DTD/sodipodi-0.dtd"
   xmlns:xlink="http://www.w3.org/1999/xlink"
   xmlns="http://www.w3.org/2000/svg"
   xmlns:svg="http://www.w3.org/2000/svg"><defs
     id="defs1"><linearGradient
       id="linearGradient36"
       inkscape:collect="always"><stop
         style="stop-color:#ece084;stop-opacity:0;"
         offset="0"
         id="stop35" /><stop
         style="stop-color:#edde99;stop-opacity:0.74509805;"
         offset="0.62"
         id="stop37" /><stop
         style="stop-color:#efddaf;stop-opacity:1;"
         offset="0.63999999"
         id="stop38" /><stop
         style="stop-color:#e3c183;stop-opacity:0.76862746;"
         offset="0.66000003"
         id="stop39" /><stop
         style="stop-color:#d8a558;stop-opacity:0;"
         offset="1"
         id="stop36" /></linearGradient><linearGradient
       id="linearGradient22"
       inkscape:collect="always"><stop
         style="stop-color:#efef9f;stop-opacity:1;"
         offset="0"
         id="stop22" /><stop
         style="stop-color:#e2e285;stop-opacity:1;"
         offset="1"
         id="stop23" /></linearGradient><linearGradient
       id="linearGradient20"
       inkscape:collect="always"><stop
         style="stop-color:#c19b2a;stop-opacity:1;"
         offset="0"
         id="stop20" /><stop
         style="stop-color:#ddbf64;stop-opacity:1;"
         offset="1"
         id="stop21" /></linearGradient><linearGradient
       id="linearGradient18"
       inkscape:collect="always"><stop
         style="stop-color:#90914f;stop-opacity:1;"
         offset="0"
         id="stop18" /><stop
         style="stop-color:#9ea059;stop-opacity:1;"
         offset="1"
         id="stop19" /></linearGradient><linearGradient
       id="linearGradient16"
       inkscape:collect="always"><stop
         style="stop-color:#766157;stop-opacity:1;"
         offset="0"
         id="stop16" /><stop
         style="stop-color:#564741;stop-opacity:1;"
         offset="1"
         id="stop17" /></linearGradient><linearGradient
       id="linearGradient14"
       inkscape:collect="always"><stop
         style="stop-color:#ece083;stop-opacity:1;"
         offset="0"
         id="stop14" /><stop
         style="stop-color:#e8d969;stop-opacity:1;"
         offset="1"
         id="stop15" /></linearGradient><linearGradient
       id="linearGradient12"
       inkscape:collect="always"><stop
         style="stop-color:#d29e4c;stop-opacity:1;"
         offset="0"
         id="stop12" /><stop
         style="stop-color:#d7bd7e;stop-opacity:1;"
         offset="1"
         id="stop13" /></linearGradient><linearGradient
       id="linearGradient10"
       inkscape:collect="always"><stop
         style="stop-color:#483d38;stop-opacity:1;"
         offset="0"
         id="stop10" /><stop
         style="stop-color:#756057;stop-opacity:1;"
         offset="1"
         id="stop11" /></linearGradient><linearGradient
       id="linearGradient7"
       inkscape:collect="always"><stop
         style="stop-color:#000000;stop-opacity:1;"
         offset="0"
         id="stop6" /><stop
         style="stop-color:#000000;stop-opacity:0;"
         offset="1"
         id="stop7" /></linearGradient><linearGradient
       id="linearGradient2"
       inkscape:collect="always"><stop
         style="stop-color:#ffffff;stop-opacity:1;"
         offset="0"
         id="stop2" /><stop
         style="stop-color:#ffffff;stop-opacity:0;"
         offset="1"
         id="stop3" /></linearGradient><linearGradient
       inkscape:collect="always"
       xlink:href="#linearGradient2"
       id="linearGradient3"
       x1="0"
       y1="200"
       x2="400"
       y2="200"
       gradientUnits="userSpaceOnUse"
       gradientTransform="translate(0,-400)" /><linearGradient
       inkscape:collect="always"
       xlink:href="#linearGradient7"
       id="linearGradient5"
       gradientUnits="userSpaceOnUse"
       gradientTransform="translate(-400)"
       x1="0"
       y1="200"
       x2="400"
       y2="200" /><linearGradient
       inkscape:collect="always"
       xlink:href="#linearGradient10"
       id="linearGradient11"
       x1="53.648495"
       y1="106.02019"
       x2="211.26797"
       y2="209.71021"
       gradientUnits="userSpaceOnUse" /><linearGradient
       inkscape:collect="always"
       xlink:href="#linearGradient12"
       id="linearGradient13"
       x1="53.648495"
       y1="106.02019"
       x2="211.26797"
       y2="209.71021"
       gradientUnits="userSpaceOnUse" /><linearGradient
       inkscape:collect="always"
       xlink:href="#linearGradient14"
       id="linearGradient15"
       x1="209.70233"
       y1="209.75171"
       x2="364.65167"
       y2="310.60867"
       gradientUnits="userSpaceOnUse" /><linearGradient
       inkscape:collect="always"
       xlink:href="#linearGradient16"
       id="linearGradient17"
       x1="209.70233"
       y1="209.75171"
       x2="364.65167"
       y2="310.60867"
       gradientUnits="userSpaceOnUse" /><linearGradient
       inkscape:collect="always"
       xlink:href="#linearGradient18"
       id="linearGradient19"
       x1="135.43082"
       y1="151.26895"
       x2="211.75571"
       y2="211.32983"
       gradientUnits="userSpaceOnUse" /><linearGradient
       inkscape:collect="always"
       xlink:href="#linearGradient20"
       id="linearGradient21"
       x1="129.19809"
       y1="157.33632"
       x2="209.96875"
       y2="210.03125"
       gradientUnits="userSpaceOnUse" /><linearGradient
       inkscape:collect="always"
       xlink:href="#linearGradient22"
       id="linearGradient23"
       x1="209.09071"
       y1="210.5432"
       x2="292.78171"
       y2="265.50458"
       gradientUnits="userSpaceOnUse" /><linearGradient
       inkscape:collect="always"
       xlink:href="#linearGradient36"
       id="linearGradient35"
       gradientUnits="userSpaceOnUse"
       x1="66.870743"
       y1="306.52069"
       x2="356.80841"
       y2="115.00577" /></defs><sodipodi:namedview
     id="namedview1"
     pagecolor="#ffffff"
     bordercolor="#000000"
     borderopacity="0.25"
     inkscape:showpageshadow="2"
     inkscape:pageopacity="0.0"
     inkscape:pagecheckerboard="0"
     inkscape:deskcolor="#d1d1d1"
     inkscape:zoom="1.47625"
     inkscape:cx="202.20152"
     inkscape:cy="344.11515"
     inkscape:window-width="1278"
     inkscape:window-height="1368"
     inkscape:window-x="-7"
     inkscape:window-y="0"
     inkscape:window-maximized="0"
     inkscape:current-layer="layer2"
     showguides="true"><sodipodi:guide
       position="119.74712,310.42915"
       orientation="0,-1"
       id="guide9"
       inkscape:locked="false" /><sodipodi:guide
       position="89.570849,271.63108"
       orientation="1,0"
       id="guide10"
       inkscape:locked="false" /></sodipodi:namedview><g
     inkscape:groupmode="layer"
     inkscape:label="Image"
     id="g1"
     style="display:inline" /><g
     inkscape:groupmode="layer"
     id="layer3"
     inkscape:label="background"
     style="display:inline"><rect
       style="display:inline;fill:#e8b564;fill-opacity:1;stroke:none;stroke-width:14.4834"
       id="rect2"
       width="400"
       height="400"
       x="0"
       y="0"
       inkscape:label="rect2" /></g><g
     inkscape:groupmode="layer"
     id="layer2"
     inkscape:label="base svg"
     style="display:inline"><g
       id="g10"
       transform="matrix(0.84535514,0,0,0.84535514,60.41257,60.41257)"><path
         d="m 356.38867,114.29102 -30.80273,20.49414 A 138,138.00009 0 0 1 348,210 138,138.00009 0 0 1 210,348 138,138.00009 0 0 1 96.535156,287.17187 l -31.371094,20.8711 A 175,175 0 0 0 210,385 175,175 0 0 0 385,210 175,175 0 0 0 356.38867,114.29102 Z"
         style="fill:url(#linearGradient15);fill-opacity:1;stroke:url(#linearGradient17);stroke-width:2.36587;stroke-dasharray:none"
         id="path5"
         inkscape:label="Light Blue Circle"
         sodipodi:insensitive="true" /><path
         d="M 210,35 A 175,175 0 0 0 35,210 175,175 0 0 0 65.164062,308.04297 l 31.371094,-20.8711 A 138,138.00009 0 0 1 72,210 138,138.00009 0 0 1 210,72 138,138.00009 0 0 1 325.58594,134.78516 l 30.80273,-20.49414 A 175,175 0 0 0 210,35 Z"
         style="opacity:1;fill:url(#linearGradient13);stroke:url(#linearGradient11);stroke-width:2.36587;stroke-dasharray:none;stroke-opacity:1"
         id="path4"
         inkscape:label="Blue Circle"
         sodipodi:insensitive="true" /><rect
         style="opacity:1;fill:url(#linearGradient23);fill-opacity:1;stroke:#483d38;stroke-width:1.7744;stroke-dasharray:none;stroke-opacity:1"
         id="rect5"
         width="165.84976"
         height="110.5266"
         x="126.93195"
         y="154.71329"
         ry="5.3886209"
         inkscape:label="white envelope"
         sodipodi:insensitive="true" /><path
         d="M 126.93159,154.71439 V 265.24023 H 262.172 a 28.246198,25.842268 0 0 1 -0.29112,-2.35662 28.246198,25.842268 0 0 1 28.24719,-25.84205 28.246198,25.842268 0 0 1 2.65468,0.12477 v -82.45194 z"
         style="display:inline;opacity:1;fill:url(#linearGradient23);stroke:#483d38;stroke-width:1.7744"
         id="path24" /><rect
         style="display:inline;opacity:1;fill:url(#linearGradient23);fill-opacity:1;stroke:#483d38;stroke-width:1.77440218;stroke-dasharray:none;stroke-opacity:1"
         id="rect24"
         width="165.84976"
         height="110.5266"
         x="126.93195"
         y="154.71329"
         ry="5.3886209"
         inkscape:label="white envelope"
         sodipodi:insensitive="true" /><path
         d="m 209.96875,210.15234 -83.03711,-55.33007 v 110.41796 h 0.36719 z"
         style="opacity:1;fill:url(#linearGradient21);fill-opacity:1;stroke:#483d38;stroke-width:1.7744;stroke-dasharray:none;stroke-opacity:1"
         id="path9"
         inkscape:label="yellow envelope"
         sodipodi:insensitive="true" /><path
         d="m 292.78125,154.9707 v -0.25781 H 126.93164 v 0.10938 l 83.03711,55.33007 z"
         style="opacity:1;fill:url(#linearGradient19);fill-opacity:1;stroke:#483d38;stroke-width:1.7744;stroke-dasharray:none;stroke-opacity:1"
         id="path8"
         inkscape:label="grey envelope"
         sodipodi:insensitive="true" /></g><g
       id="g35"
       transform="matrix(0.84535514,0,0,0.84535514,60.41257,60.41257)"><path
         id="path35"
         style="display:inline;opacity:0.61;mix-blend-mode:screen;fill:url(#linearGradient35);fill-opacity:1;stroke:#483d38;stroke-width:1.7744;stroke-dasharray:none;stroke-opacity:1"
         inkscape:label="highlight"
         d="m 292.78125,154.9707 v -0.25781 H 126.93164 v 0.10938 l 83.03711,55.33007 z m -82.8125,55.18164 -83.03711,-55.33007 v 110.41796 h 0.36719 z m -77.64818,-55.43905 h 155.07252 c 2.9853,0 5.38863,2.40332 5.38863,5.38862 v 99.74936 c 0,2.9853 -2.40333,5.38862 -5.38863,5.38862 H 132.32057 c -2.98529,0 -5.38862,-2.40332 -5.38862,-5.38862 v -99.74936 c 0,-2.9853 2.40333,-5.38862 5.38862,-5.38862 z M 210,35 A 175,175 0 0 0 35,210 175,175 0 0 0 65.164062,308.04297 l 31.371094,-20.8711 A 138,138.00009 0 0 1 72,210 138,138.00009 0 0 1 210,72 138,138.00009 0 0 1 325.58594,134.78516 l 30.80273,-20.49414 A 175,175 0 0 0 210,35 Z m 146.38867,79.29102 -30.80273,20.49414 A 138,138.00009 0 0 1 348,210 138,138.00009 0 0 1 210,348 138,138.00009 0 0 1 96.535156,287.17187 l -31.371094,20.8711 A 175,175 0 0 0 210,385 175,175 0 0 0 385,210 175,175 0 0 0 356.38867,114.29102 Z" /></g></g><g
     inkscape:groupmode="layer"
     id="layer1"
     inkscape:label="scrim"
     style="display:inline;fill:#ffffff"><rect
       style="display:inline;opacity:0.15;mix-blend-mode:multiply;fill:url(#linearGradient5);stroke:none;stroke-width:13.9187"
       id="rect1"
       width="400"
       height="400"
       x="-400"
       y="0"
       transform="rotate(-90)"
       inkscape:label="shadow"
       sodipodi:insensitive="true" /><rect
       style="opacity:0.06;mix-blend-mode:screen;fill:url(#linearGradient3);stroke:none;stroke-width:13.9187"
       id="rect3"
       width="400"
       height="400"
       x="0"
       y="-400"
       transform="rotate(90)"
       inkscape:label="highlight"
       sodipodi:insensitive="true" /></g></svg>
