<?xml version="1.0" encoding="UTF-8" standalone="no"?>
<!-- Created with Inkscape (http://www.inkscape.org/) -->

<svg
   version="1.1"
   id="svg1"
   width="400"
   height="400"
   viewBox="0 0 400 400"
   sodipodi:docname="marvin.svg"
   inkscape:version="1.3.1 (91b66b0783, 2023-11-16)"
   inkscape:export-filename="marvin-288.png"
   inkscape:export-xdpi="69.120003"
   inkscape:export-ydpi="69.120003"
   xmlns:inkscape="http://www.inkscape.org/namespaces/inkscape"
   xmlns:sodipodi="http://sodipodi.sourceforge.net/DTD/sodipodi-0.dtd"
   xmlns:xlink="http://www.w3.org/1999/xlink"
   xmlns="http://www.w3.org/2000/svg"
   xmlns:svg="http://www.w3.org/2000/svg">
  <defs
     id="defs1">
    <linearGradient
       id="linearGradient7"
       inkscape:collect="always">
      <stop
         style="stop-color:#000000;stop-opacity:1;"
         offset="0"
         id="stop6" />
      <stop
         style="stop-color:#000000;stop-opacity:0;"
         offset="1"
         id="stop7" />
    </linearGradient>
    <linearGradient
       id="linearGradient2"
       inkscape:collect="always">
      <stop
         style="stop-color:#ffffff;stop-opacity:1;"
         offset="0"
         id="stop2" />
      <stop
         style="stop-color:#ffffff;stop-opacity:0;"
         offset="1"
         id="stop3" />
    </linearGradient>
    <linearGradient
       id="linearGradient20"
       inkscape:collect="always">
      <stop
         style="stop-color:#372e2b;stop-opacity:0.0882353;"
         offset="0.18250951"
         id="stop19" />
      <stop
         style="stop-color:#372e2b;stop-opacity:0.59090906;"
         offset="1"
         id="stop20" />
    </linearGradient>
    <linearGradient
       id="linearGradient11"
       inkscape:collect="always">
      <stop
         style="stop-color:#fe6876;stop-opacity:1;"
         offset="0.67425966"
         id="stop11" />
      <stop
         style="stop-color:#f2929c;stop-opacity:1;"
         offset="1"
         id="stop12" />
    </linearGradient>
    <linearGradient
       id="linearGradient4"
       inkscape:collect="always">
      <stop
         style="stop-color:#685650;stop-opacity:1;"
         offset="0"
         id="stop4" />
      <stop
         style="stop-color:#524540;stop-opacity:1;"
         offset="1"
         id="stop5" />
    </linearGradient>
    <radialGradient
       inkscape:collect="always"
       xlink:href="#linearGradient4"
       id="radialGradient5"
       cx="789.12964"
       cy="-6.3188872"
       fx="789.12964"
       fy="-6.3188872"
       r="196.80268"
       gradientTransform="matrix(-0.634172,-1.2238926,1.2104846,-0.62693928,801.74233,1263.9652)"
       gradientUnits="userSpaceOnUse" />
    <linearGradient
       inkscape:collect="always"
       xlink:href="#linearGradient11"
       id="linearGradient12"
       x1="281.12689"
       y1="315.92596"
       x2="272.19177"
       y2="299.64038"
       gradientUnits="userSpaceOnUse" />
    <linearGradient
       inkscape:collect="always"
       xlink:href="#linearGradient20"
       id="linearGradient19"
       x1="355.56433"
       y1="134.48375"
       x2="390.55429"
       y2="111.79111"
       gradientUnits="userSpaceOnUse" />
    <linearGradient
       inkscape:collect="always"
       xlink:href="#linearGradient2"
       id="linearGradient3"
       x1="0"
       y1="200"
       x2="400"
       y2="200"
       gradientUnits="userSpaceOnUse"
       gradientTransform="translate(0,-400)" />
    <linearGradient
       inkscape:collect="always"
       xlink:href="#linearGradient7"
       id="linearGradient5"
       gradientUnits="userSpaceOnUse"
       gradientTransform="translate(-400)"
       x1="0"
       y1="200"
       x2="400"
       y2="200" />
  </defs>
  <sodipodi:namedview
     id="namedview1"
     pagecolor="#ffffff"
     bordercolor="#000000"
     borderopacity="0.25"
     inkscape:showpageshadow="2"
     inkscape:pageopacity="0.0"
     inkscape:pagecheckerboard="0"
     inkscape:deskcolor="#d1d1d1"
     inkscape:zoom="2.0877328"
     inkscape:cx="193.27186"
     inkscape:cy="202.37264"
     inkscape:window-width="2560"
     inkscape:window-height="1377"
     inkscape:window-x="-8"
     inkscape:window-y="-8"
     inkscape:window-maximized="1"
     inkscape:current-layer="layer1" />
  <g
     inkscape:groupmode="layer"
     inkscape:label="Image"
     id="g1">
    <rect
       style="display:inline;fill:#5dc0bd;fill-opacity:1;stroke:#333331;stroke-width:0.8;stroke-dasharray:none;stroke-opacity:1"
       id="rect2"
       x="0"
       y="0"
       width="400"
       height="400"
       inkscape:label="teal background"
       sodipodi:insensitive="true" />
    <path
       style="display:inline;fill:url(#radialGradient5);fill-opacity:1;stroke:#483d38;stroke-width:2;stroke-dasharray:none;stroke-opacity:1"
       d="M 82.303133,400.08467 34.970364,385.52075 c 0,0 -13.039797,-4.86876 -17.400508,-7.87469 -4.204378,-2.89816 -9.4411515,-8.97544 -9.6951735,-12.19305 -0.254022,-3.21762 -0.254022,-8.21338 4.3183745,-11.51567 4.572396,-3.30228 12.362404,-1.35478 12.362404,-1.35478 l 67.485183,14.05588 c 0,0 -24.503265,-58.88833 -32.406575,-87.86713 -7.90331,-28.9788 -11.016736,-31.85274 -5.029379,-53.40722 5.987356,-21.55448 15.327632,-29.45779 28.499816,-38.55857 13.172184,-9.10078 52.449244,-36.40313 102.264044,-60.83154 49.81481,-24.42842 92.44478,-37.600601 110.16736,-42.62998 17.72257,-5.029379 43.10896,-12.214207 65.62142,2.394943 22.51246,14.609147 40.23504,48.377837 40.23504,48.377837 l -0.95798,266.31761 z"
       id="path1"
       inkscape:label="brown body"
       sodipodi:nodetypes="ccsssccssssssccc" />
    <path
       style="display:inline;fill:none;fill-opacity:1;stroke:#333331;stroke-width:5.5;stroke-dasharray:none;stroke-opacity:1"
       d="m 162.32007,313.63252 c 0,0 -3.97968,-15.49535 13.46316,-24.04742 17.44285,-8.55208 26.50297,5.41913 26.50297,5.41913 v 0"
       id="path2"
       inkscape:label="left eye"
       sodipodi:insensitive="true" />
    <path
       style="display:inline;fill:none;fill-opacity:1;stroke:#333331;stroke-width:5.5;stroke-dasharray:none;stroke-opacity:1"
       d="m 306.26588,243.86114 c 0,0 -3.97968,-15.49535 13.46316,-24.04742 17.44285,-8.55208 26.50297,5.41913 26.50297,5.41913 v 0"
       id="path5"
       inkscape:label="right eye"
       sodipodi:insensitive="true" />
    <path
       d="m 302.11719,276.10156 c -1.60305,-3.36939 -5.5898,-4.83191 -8.9961,-3.27539 l -52.44922,23.9668 c -2.90848,1.32905 -4.42425,4.41973 -3.875,7.42187 a 36.229862,37.127964 0 0 0 14.86719,12.61914 48.497585,48.497585 0 0 1 41.35742,-23.45312 48.497585,48.497585 0 0 1 7.98633,0.66601 36.229862,37.127964 0 0 0 1.7793,-10.90429 36.229862,37.127964 0 0 0 -0.66992,-7.04102 z"
       style="display:inline;fill:#353136;fill-opacity:1;stroke:none"
       id="path10"
       sodipodi:insensitive="true"
       inkscape:label="mouth hole" />
    <path
       d="m 301.00781,294.04687 a 48.497585,48.497585 0 0 0 -7.98633,-0.66601 48.497585,48.497585 0 0 0 -41.35742,23.45312 36.229862,37.127964 0 0 0 14.89258,3.43555 36.229862,37.127964 0 0 0 34.45117,-26.22266 z"
       style="display:inline;fill:url(#linearGradient12);fill-opacity:1;stroke:none"
       id="path11"
       sodipodi:insensitive="true"
       inkscape:label="tongue" />
    <path
       d="m 401.17578,194.5332 0.2168,-60.41601 c 0,0 -17.72194,-33.76978 -40.23438,-48.378909 -11.97529,-7.7712 -24.73832,-9.297504 -36.7539,-8.339844 4.50555,3.137758 11.5326,8.50666 16.51562,15.046875 7.66381,10.058748 21.91335,27.420648 40.95313,64.302738 8.42586,16.3218 14.37423,27.93298 19.30273,37.78515 z"
       style="display:inline;fill:url(#linearGradient19);stroke-width:0.8"
       id="path19"
       inkscape:label="body shadow" />
  </g>
  <g
     inkscape:groupmode="layer"
     id="layer1"
     inkscape:label="scrim"
     style="display:inline;fill:#ffffff">
    <rect
       style="display:inline;opacity:0.15;mix-blend-mode:multiply;fill:url(#linearGradient5);stroke:none;stroke-width:13.9187"
       id="rect1"
       width="400"
       height="400"
       x="-400"
       y="0"
       transform="rotate(-90)"
       inkscape:label="shadow" />
    <rect
       style="opacity:0.06;mix-blend-mode:screen;fill:url(#linearGradient3);stroke:none;stroke-width:13.9187"
       id="rect3"
       width="400"
       height="400"
       x="0"
       y="-400"
       transform="rotate(90)"
       inkscape:label="highlight" />
  </g>
</svg>
