<?xml version="1.0" encoding="UTF-8" standalone="no"?>
<!-- Created with Inkscape (http://www.inkscape.org/) -->

<svg
   version="1.1"
   id="svg1"
   width="400"
   height="400"
   viewBox="0 0 400 400"
   sodipodi:docname="action_key.svg"
   inkscape:version="1.3.1 (91b66b0783, 2023-11-16)"
   inkscape:export-filename="marvin-288.png"
   inkscape:export-xdpi="69.120003"
   inkscape:export-ydpi="69.120003"
   xml:space="preserve"
   xmlns:inkscape="http://www.inkscape.org/namespaces/inkscape"
   xmlns:sodipodi="http://sodipodi.sourceforge.net/DTD/sodipodi-0.dtd"
   xmlns:xlink="http://www.w3.org/1999/xlink"
   xmlns="http://www.w3.org/2000/svg"
   xmlns:svg="http://www.w3.org/2000/svg"><defs
     id="defs1"><linearGradient
       id="linearGradient7"
       inkscape:collect="always"><stop
         style="stop-color:#000000;stop-opacity:1;"
         offset="0"
         id="stop6" /><stop
         style="stop-color:#000000;stop-opacity:0;"
         offset="1"
         id="stop7" /></linearGradient><linearGradient
       id="linearGradient2"
       inkscape:collect="always"><stop
         style="stop-color:#ffffff;stop-opacity:1;"
         offset="0"
         id="stop2" /><stop
         style="stop-color:#ffffff;stop-opacity:0;"
         offset="1"
         id="stop3" /></linearGradient><linearGradient
       inkscape:collect="always"
       xlink:href="#linearGradient2"
       id="linearGradient3"
       x1="0"
       y1="200"
       x2="400"
       y2="200"
       gradientUnits="userSpaceOnUse"
       gradientTransform="translate(0,-400)" /><linearGradient
       inkscape:collect="always"
       xlink:href="#linearGradient7"
       id="linearGradient5"
       gradientUnits="userSpaceOnUse"
       gradientTransform="translate(-400)"
       x1="0"
       y1="200"
       x2="400"
       y2="200" /></defs><sodipodi:namedview
     id="namedview1"
     pagecolor="#ffffff"
     bordercolor="#000000"
     borderopacity="0.25"
     inkscape:showpageshadow="2"
     inkscape:pageopacity="0.0"
     inkscape:pagecheckerboard="0"
     inkscape:deskcolor="#d1d1d1"
     inkscape:zoom="2.0877328"
     inkscape:cx="193.27186"
     inkscape:cy="164.05356"
     inkscape:window-width="2560"
     inkscape:window-height="1377"
     inkscape:window-x="-8"
     inkscape:window-y="-8"
     inkscape:window-maximized="1"
     inkscape:current-layer="layer3" /><g
     inkscape:groupmode="layer"
     id="layer3"
     inkscape:label="background"
     style="display:inline"><rect
       style="fill:#587bf6;fill-opacity:1;stroke:none;stroke-width:14.4834"
       id="rect2"
       width="400"
       height="400"
       x="0"
       y="0" /></g><g
     inkscape:groupmode="layer"
     id="layer2"
     inkscape:label="base svg"><g
       style="display:inline;fill:none"
       id="g2"
       transform="matrix(0.47394317,0,0,0.4803084,121.15835,119.9307)"><path
         d="M 445.19947,223.42922 H 329.43766 c -2.45625,0 -5.52085,1.69837 -6.7936,3.77405 l -69.37478,112.93706 c -1.2727,2.07568 -3.34617,2.06464 -4.6189,0 l -68.6411,-112.91502 c -1.26166,-2.07571 -4.31534,-3.78515 -6.77156,-3.78515 H 56.935808 c -2.45634,0 -3.35828,1.64344 -1.98338,3.663 L 192.08838,428.75303 c 1.37396,2.0097 2.48931,5.65066 2.48931,8.07068 v 121.0517 c 0,2.42109 2.01744,4.4077 4.47369,4.4077 h 103.98628 c 2.45634,0 4.47375,-1.98661 4.47375,-4.4077 v -121.0517 c 0,-2.42002 1.1264,-6.06098 2.49034,-8.07068 L 447.17069,227.10316 c 1.375,-2.00857 0.47299,-3.663 -1.98329,-3.663 z"
         fill="#fef9e6"
         id="path1"
         style="stroke-width:1.09994" /><path
         d="m 243.11075,48.966975 c 3.01957,1.65438 5.94883,2.99753 7.4921,2.99753 1.54334,0 4.13605,-0.92181 7.47126,-2.99753 65.56438,-41.3758013 11.00764,-92.154555 -7.47126,-111.28256 -18.48985,19.128005 -73.04651,69.9067587 -7.4921,111.28256 z"
         fill="#fef9e6"
         id="path2"
         style="stroke-width:1.09994" /><path
         d="m 174.15513,199.9035 c 3.7301,-0.30028 7.18845,-0.82171 8.57445,-1.74353 1.39704,-0.92071 3.16689,-3.27466 4.90161,-7.1269 33.825,-76.11223 -46.30885,-89.54541 -74.63506,-95.839655 -4.99175,28.186375 -23.154882,106.253425 61.159,104.699145 z"
         fill="#fef9e6"
         id="path3"
         style="stroke-width:1.09994" /><path
         d="m 66.741248,183.28136 c 3.15469,-1.98767 5.95969,-4.03039 6.75944,-5.48457 0.80084,-1.45419 1.25175,-4.36366 0.95812,-8.55904 -6.20849,-82.862995 -83.4238005,-57.84025 -111.445859,-50.34596 8.96885,27.20968 29.9488175,104.59905 103.728299,64.38957 z"
         fill="#fef9e6"
         id="path4"
         style="stroke-width:1.09994" /><path
         d="m 80.124848,322.22022 c 1.34096,-3.44194 2.3552,-6.73863 2.11748,-8.371 -0.23648,-1.64234 -1.63342,-4.22947 -4.39339,-7.43821 -54.985212,-62.99035 -101.981505,2.35402 -119.998179,24.79073 23.627777,16.62979 87.187429,66.56429 122.262049,-8.98152 z"
         fill="#fef9e6"
         id="path5"
         style="stroke-width:1.09994" /><path
         d="m 250.593,69.966045 c -14.46721,16.08528 -57.15928,58.760835 -5.86962,93.541745 2.36615,1.38709 4.653,2.52012 5.86962,2.52012 1.21662,0 3.234,-0.77769 5.84866,-2.52012 51.30075,-34.78091 8.61849,-77.467415 -5.84866,-93.541745 z"
         fill="#fef9e6"
         id="path6"
         style="stroke-width:1.09994" /><path
         d="m 109.3728,357.62811 c -0.82276,-0.56651 -2.56846,-0.97789 -5.17108,-0.99993 -51.379912,-0.21005 -42.827442,48.50342 -40.708872,66.11003 17.48671,-4.1965 66.804192,-13.332 48.640902,-60.68037 -0.94595,-2.03175 -1.94919,-3.86431 -2.772,-4.42973 z"
         fill="#fef9e6"
         id="path7"
         style="stroke-width:1.09994" /><path
         d="m 244.72338,274.21294 c 2.36615,1.38819 4.653,2.52003 5.86962,2.52003 1.21662,0 3.234,-0.77653 5.84756,-2.52003 51.30076,-34.78091 8.61959,-77.46647 -5.84756,-93.54187 -14.46721,16.08649 -57.15928,58.76096 -5.86962,93.54187 z"
         fill="#fef9e6"
         id="path8"
         style="stroke-width:1.09994" /><path
         d="m 28.283866,248.29249 c 1.611282,-2.19774 2.96329,-4.34055 3.075931,-5.52855 0.112751,-1.188 -0.495772,-3.24171 -2.016852,-5.96206 -30.5572275,-53.46438 -77.531074,-15.39775 -95.085741,-2.64219 14.963058,15.642 54.286852,61.35911 94.038212,14.1328 z"
         fill="#fef9e6"
         id="path9"
         style="stroke-width:1.09994" /><path
         d="m 81.147848,101.07288 c 2.74895,-0.1892 5.28437,-0.54441 6.27549,-1.233035 0.99112,-0.68752 2.20879,-2.45305 3.34628,-5.35037 C 112.76404,37.083054 52.990088,26.025966 31.807605,20.952434 29.238667,42.289795 18.895035,101.35014 81.158928,101.07288 Z"
         fill="#fef9e6"
         id="path10"
         style="stroke-width:1.09994" /><path
         d="m 165.34079,82.610565 c 3.03046,0.52247 5.89268,0.8106 7.16655,0.33328 1.2726,-0.47749 3.07556,-2.07571 5.10391,-4.92917 39.6605,-56.56229 -22.31021,-84.5050403 -43.96587,-95.662118 -8.65366,22.5251357 -36.089922,83.983488 31.69541,100.258008 z"
         fill="#fef9e6"
         id="path11"
         style="stroke-width:1.09994" /><path
         d="m 318.75337,198.16769 c 1.39704,0.92178 4.84438,1.43225 8.57449,1.74347 84.30295,1.55431 66.13972,-76.5126 61.16003,-104.699015 -28.32723,6.283175 -108.46108,19.727305 -74.63608,95.839695 1.73577,3.84113 3.50457,6.20619 4.90156,7.12691 z"
         fill="#fef9e6"
         id="path12"
         style="stroke-width:1.09994" /><path
         d="m 427.05718,169.23224 c -0.2926,4.19651 0.15729,7.10598 0.9581,8.56017 0.79971,1.45419 3.60471,3.50785 6.75949,5.48347 73.79021,40.19949 94.77051,-37.17887 103.72781,-64.38847 -28.02249,-7.48334 -105.237,-32.517035 -111.4454,50.34483 z"
         fill="#fef9e6"
         id="path13"
         style="stroke-width:1.09994" /><path
         d="m 423.61309,306.41101 c -2.76101,3.20874 -4.158,5.8069 -4.39449,7.43821 -0.2365,1.63237 0.7876,4.92906 2.12848,8.371 35.07569,75.54581 98.63591,25.61131 122.26281,8.98152 -18.0158,-22.43671 -65.0012,-87.78108 -119.9968,-24.79073 z"
         fill="#fef9e6"
         id="path14"
         style="stroke-width:1.09994" /><path
         d="m 397.27251,356.60953 c -2.60261,0.0219 -4.34942,0.44435 -5.17114,0.99988 -0.82281,0.55443 -1.82596,2.38699 -2.772,4.42968 -18.15218,47.34732 31.15419,56.48394 48.64091,60.68041 2.11859,-17.59556 10.67,-66.32121 -40.70879,-66.10997 z"
         fill="#fef9e6"
         id="path15"
         style="stroke-width:1.09994" /><path
         d="m 472.14729,236.81291 c -1.53231,2.72031 -2.12961,4.77397 -2.01631,5.96197 0.11221,1.18691 1.45312,3.32972 3.07562,5.52866 39.75179,47.21417 79.07459,1.50916 94.03789,-14.13284 -17.55491,-12.74463 -64.52821,-50.81224 -95.08512,2.64221 z"
         fill="#fef9e6"
         id="path16"
         style="stroke-width:1.09994" /><path
         d="m 414.06069,99.839845 c 0.9911,0.677505 3.52659,1.032845 6.27551,1.233035 62.26329,0.27726 51.92108,-58.783085 49.35148,-80.120446 -21.18271,5.073532 -80.96769,16.141731 -58.96219,73.537041 1.1264,2.89732 2.343,4.67379 3.34621,5.35037 z"
         fill="#fef9e6"
         id="path17"
         style="stroke-width:1.09994" /><path
         d="m 328.98337,82.943845 c 1.27272,0.47732 4.12391,0.18919 7.16652,-0.33328 67.78422,-16.27452 40.34798,-77.7439803 31.69539,-100.258008 -21.64472,11.1570777 -83.61543,39.099828 -43.96587,95.662118 2.02834,2.85346 3.83021,4.45168 5.10396,4.92917 z"
         fill="#fef9e6"
         id="path18"
         style="stroke-width:1.09994" /></g></g><g
     inkscape:groupmode="layer"
     id="layer1"
     inkscape:label="scrim"
     style="display:inline;fill:#ffffff"><rect
       style="display:inline;opacity:0.15;mix-blend-mode:multiply;fill:url(#linearGradient5);stroke:none;stroke-width:13.9187"
       id="rect1"
       width="400"
       height="400"
       x="-400"
       y="0"
       transform="rotate(-90)"
       inkscape:label="shadow" /><rect
       style="opacity:0.06;mix-blend-mode:screen;fill:url(#linearGradient3);stroke:none;stroke-width:13.9187"
       id="rect3"
       width="400"
       height="400"
       x="0"
       y="-400"
       transform="rotate(90)"
       inkscape:label="highlight" /></g></svg>
